<svg width="810" height="477" viewBox="0 0 810 477" fill="none" xmlns="http://www.w3.org/2000/svg">
<g opacity="0.2">
<path d="M270.694 84.0031L407.522 3.29944L158.679 86.9647L14.0522 304.643L2 480.858L21.8507 563.042L93.4552 714.084L2.70896 480.118L80.694 257.257L270.694 84.0031Z" fill="white" fill-opacity="0.2"/>
<path d="M313.94 770.355L94.873 715.565L280.619 856.241H513.157L313.94 770.355Z" fill="black" fill-opacity="0.1"/>
<path d="M513.866 854.76L592.56 685.209L717.336 724.45L514.575 855.501L513.866 854.76Z" fill="black" fill-opacity="0.1"/>
<path d="M785.395 497.887L809.5 315.008L800.284 571.927L720.88 719.267L718.754 721.488L785.395 497.887Z" fill="black" fill-opacity="0.1"/>
<path d="M732.224 244.67L660.619 89.1859L802.41 302.421L805.246 308.345L732.224 244.67Z" fill="black" fill-opacity="0.1"/>
<path d="M591.851 685.208L316.776 769.614L314.649 771.095L513.866 856.241L591.851 685.208Z" fill="black" fill-opacity="0.05"/>
<path d="M808.791 312.787L732.933 245.41L785.395 493.445L808.791 312.787Z" fill="black" fill-opacity="0.05"/>
<path d="M311.813 769.614L138.119 529.724L93.4551 714.084L311.813 769.614Z" fill="black" fill-opacity="0.05"/>
<path d="M14.0522 304.643L158.679 86.2243L408.231 1.8186L659.91 87.7051L808.791 312.047L800.284 571.927L718.045 723.709L513.157 856.241H280.619L93.4552 714.084L21.8507 563.042L2 480.858L14.0522 304.643Z" stroke="white" stroke-width="2"/>
<path d="M14.0522 304.642L80.694 255.776L308.269 281.69L597.522 380.904L785.396 497.147L800.284 572.668" stroke="white" stroke-width="2"/>
<path d="M93.455 713.344L137.41 528.984L80.6938 256.516L270.694 84.003L408.231 2.55896L520.955 107.696L597.522 381.644L592.56 683.728L513.157 856.241" stroke="white" stroke-width="2"/>
<path d="M93.4553 714.084L2.70898 480.858L80.6941 256.517L159.388 86.9647" stroke="white" stroke-width="2"/>
<path d="M271.403 84.0031L308.977 282.43L386.254 553.417L313.231 770.355L280.619 856.241" stroke="white" stroke-width="2"/>
<path d="M159.388 86.9647L270.694 84.0031L520.955 107.696L731.515 243.189L808.791 312.047" stroke="white" stroke-width="2"/>
<path d="M385.545 552.677L597.522 381.644L732.224 245.41L659.91 87.705L520.246 107.696L308.978 282.43" stroke="white" stroke-width="2"/>
<path d="M308.978 282.43L138.12 528.984L313.232 770.355L592.56 684.468L785.396 497.887L731.515 243.189" stroke="white" stroke-width="2"/>
<path d="M718.045 722.969L784.687 498.627L808.791 312.787" stroke="white" stroke-width="2"/>
</g>
</svg>
