<svg width="810" height="457" viewBox="0 0 810 457" fill="none" xmlns="http://www.w3.org/2000/svg">
<g opacity="0.2">
<path opacity="0.1" d="M270.694 80.6941L407.522 3.41797L158.679 83.5299L14.0522 291.963L2 460.694L21.8507 539.388L93.4552 684.015L2.70896 459.985L80.694 246.59L270.694 80.6941Z" fill="#2A343E"/>
<g opacity="0.5">
<path d="M313.94 737.896L94.873 685.433L280.619 820.134H513.157L313.94 737.896Z" fill="#2A343E"/>
<path d="M513.866 818.716L592.56 656.366L717.336 693.94L514.575 819.425L513.866 818.716Z" fill="#2A343E"/>
<path d="M785.395 477L809.5 301.888L800.284 547.896L720.88 688.978L718.754 691.104L785.395 477Z" fill="#2A343E"/>
<path d="M732.224 234.537L660.619 85.6567L802.41 289.836L805.246 295.507L732.224 234.537Z" fill="#2A343E"/>
</g>
<g opacity="0.3">
<path d="M591.851 656.366L316.776 737.187L314.649 738.604L513.866 820.134L591.851 656.366Z" fill="#2A343E"/>
<path d="M808.791 299.761L732.933 235.246L785.395 472.746L808.791 299.761Z" fill="#2A343E"/>
<path d="M311.813 737.187L138.119 507.485L93.4551 684.015L311.813 737.187Z" fill="#2A343E"/>
</g>
<path d="M14.0522 291.963L158.679 82.8209L408.231 2L659.91 84.2388L808.791 299.052L800.284 547.896L718.045 693.231L513.157 820.134H280.619L93.4552 684.015L21.8507 539.388L2 460.694L14.0522 291.963Z" stroke="#B2BDC5" stroke-width="2"/>
<path d="M14.0522 291.963L80.694 245.172L308.269 269.985L597.522 364.985L785.396 476.291L800.284 548.604" stroke="#B2BDC5" stroke-width="2"/>
<path d="M93.455 683.306L137.41 506.776L80.6938 245.881L270.694 80.6941L408.231 2.70898L520.955 103.381L597.522 365.694L592.56 654.948L513.157 820.134" stroke="#B2BDC5" stroke-width="2"/>
<path d="M93.4553 684.015L2.70898 460.694L80.6941 245.881L159.388 83.5299" stroke="#B2BDC5" stroke-width="2"/>
<path d="M271.403 80.6941L308.977 270.694L386.254 530.172L313.231 737.896L280.619 820.134" stroke="#B2BDC5" stroke-width="2"/>
<path d="M159.388 83.5299L270.694 80.6941L520.955 103.381L731.515 233.119L808.791 299.052" stroke="#B2BDC5" stroke-width="2"/>
<path d="M385.545 529.463L597.522 365.694L732.224 235.246L659.91 84.2388L520.246 103.381L308.978 270.694" stroke="#B2BDC5" stroke-width="2"/>
<path d="M308.978 270.694L138.12 506.776L313.232 737.896L592.56 655.657L785.396 477L731.515 233.119" stroke="#B2BDC5" stroke-width="2"/>
<path d="M718.045 692.522L784.687 477.709L808.791 299.761" stroke="#B2BDC5" stroke-width="2"/>
</g>
</svg>
